<?xml version="1.0" encoding="UTF-8"?>
<!-- Generator: Adobe Illustrator 16.0.0, SVG Export Plug-In . SVG Version: 6.00 Build 0)  -->
<svg width="3600" height="1100" enable-background="new 0 0 3573.789 1417.32" version="1.1" viewBox="0 0 3600 1100" xml:space="preserve" xmlns="http://www.w3.org/2000/svg">













































<g transform="matrix(1.096 0 0 1.096 -185.58 -237)">
	<path d="m381.3 724.03-115.74 160.86s-36.054 42.811 0 64.59c36.042 21.775 139.79 74.352 139.79 74.352s55.231 26.92 93.443 10.518c33.229-14.27 38.49-38.602 96.317-115.9 60.695-81.127-213.81-194.42-213.81-194.42z" fill="#4388c7"/>
	<path d="m911.78 724.03 115.74 160.86s36.055 42.811 0 64.59c-36.044 21.775-139.79 74.352-139.79 74.352s-55.232 26.92-93.441 10.518c-33.232-14.27-38.49-38.602-96.316-115.9-60.696-81.126 213.8-194.42 213.8-194.42z" fill="#30a854"/>
	<path d="m696.03 430.52c-54.077-77.354-97.636 0-97.636 0l-217.09 293.51 213.81 194.42s48.656-58.02 102.33-0.492l214.33-193.93c-1e-3 0-161.67-216.15-215.75-293.51z" fill="#fed331"/>
	<path d="m591.54 923.02c44.047-59.512 100.72-16.867 112.57 6.729 3 5.99 56.513 89.584 95.564 103.85 39.044 14.27 66.086 0 66.086 0s117.92-61.586 153.96-83.367c36.051-21.779 0-73.598 0-73.598l-135.18-190.02s-134.44-178.74-188.51-256.1c-54.077-77.354-97.636 0-97.636 0l-204.12 275.49-128.71 178.88s-36.054 42.811 0 64.59c36.042 21.775 135.94 74.352 135.94 74.352s55.233 26.92 93.445 10.518c33.231-14.271 40.791-35.949 96.596-111.34z" fill="none"/>
	<path d="m409.07 628.16" fill="#fed331"/>
<g fill="#444343">
	<path d="m1482.7 910.86c0 2.693-1.311 5.215-3.937 7.566-2.623 2.354-6.053 4.373-10.292 6.057-4.238 1.68-8.949 2.926-14.127 3.734-5.182 0.805-10.228 1.074-15.138 0.805-4.913-0.27-9.455-1.145-13.622-2.623-4.172-1.482-7.336-3.701-9.485-6.658-3.099-4.172-7.906-10.865-14.431-20.082-6.527-9.217-14.197-20.084-23.009-32.596-8.814-12.514-18.468-26.269-28.961-41.272-10.497-15.001-21.228-30.406-32.192-46.218-10.969-15.809-21.933-31.586-32.897-47.328-10.969-15.743-21.361-30.609-31.182-44.604l1.413 224.43c0 2.824-1.751 5.383-5.249 7.67-3.499 2.285-7.905 4.066-13.218 5.348-5.318 1.277-11.101 2.018-17.357 2.219-6.256 0.203-12.042-0.338-17.357-1.613-5.316-1.281-9.723-3.33-13.219-6.156-3.5-2.826-5.248-6.592-5.248-11.303l1.213-336.24c0-1.747 1.41-3.462 4.236-5.146 2.827-1.681 6.39-3.196 10.697-4.542 4.304-1.344 9.082-2.422 14.329-3.229 5.247-0.808 10.324-1.177 15.237-1.11 4.91 0.07 9.315 0.641 13.22 1.717 3.901 1.078 6.728 2.825 8.478 5.247l160.85 225.24c0-15.204 0.03-30.811 0.101-46.824 0.065-16.01 0.102-31.687 0.102-47.025v-43.896c0-13.926 0.032-26.471 0.101-37.641 0.066-11.166 0.133-20.585 0.201-28.255 0.066-7.668 0.167-12.917 0.302-15.742 0-2.555 1.717-4.775 5.148-6.661 3.431-1.882 7.67-3.329 12.715-4.338s10.494-1.616 16.349-1.817c5.851-0.202 11.301 0.034 16.347 0.707 5.047 0.675 9.25 1.886 12.614 3.633 3.36 1.751 5.045 3.969 5.045 6.659z"/>
	<path d="m1673.8 918.12c-17.225 0.137-32.696-2.285-46.421-7.264-13.723-4.979-25.731-11.809-36.025-20.486-10.291-8.68-18.838-18.836-25.632-30.475s-11.841-23.982-15.136-37.036c-3.3-13.048-4.944-26.505-4.944-40.364 0-13.856 1.745-27.348 5.247-40.466 3.498-13.118 8.644-25.531 15.439-37.237 6.792-11.704 15.271-21.93 25.429-30.676 10.159-8.746 21.966-15.643 35.421-20.688 13.454-5.045 28.525-7.567 45.208-7.567 16.012 0 30.375 2.557 43.091 7.668 12.715 5.115 23.847 12.008 33.402 20.688 9.551 8.678 17.489 18.803 23.815 30.374 6.323 11.574 11.065 23.851 14.229 36.834 3.159 12.985 4.743 26.372 4.743 40.163 0 13.793-1.584 27.214-4.743 40.264-3.163 13.052-7.905 25.362-14.229 36.933-6.326 11.574-14.198 21.732-23.613 30.477-9.421 8.748-20.42 15.711-32.999 20.889-12.583 5.18-26.675 7.838-42.282 7.969zm-9.284-203.84c-9.419 0.538-17.629 2.894-24.623 7.063-6.997 4.172-12.816 9.521-17.458 16.045-4.643 6.527-8.107 13.825-10.393 21.898-2.29 8.071-3.4 16.315-3.332 24.724 0.068 8.41 1.378 16.618 3.937 24.621 2.555 8.007 6.288 15.138 11.202 21.396 4.908 6.256 11.065 11.301 18.466 15.135 7.398 3.836 16.076 5.752 26.035 5.752 9.82 0 18.397-1.982 25.733-5.953 7.332-3.968 13.386-9.248 18.163-15.843 4.775-6.591 8.308-14.06 10.598-22.402 2.285-8.342 3.295-16.852 3.026-25.531-0.271-8.679-1.751-17.154-4.44-25.43-2.691-8.274-6.592-15.572-11.706-21.898-5.113-6.323-11.436-11.302-18.972-14.936-7.535-3.633-16.281-5.177-26.236-4.641z"/>
	<path d="m1978.1 827.5 79.72-165.3c1.211-2.422 3.699-3.8 7.469-4.137 3.764-0.334 8.104 0.101 13.016 1.312s10.021 2.996 15.341 5.349c5.312 2.355 10.021 4.912 14.128 7.668 4.102 2.76 7.296 5.585 9.586 8.476 2.285 2.895 2.89 5.484 1.815 7.771-1.48 2.961-3.834 7.839-7.063 14.631-3.23 6.797-7.033 14.869-11.402 24.221-4.375 9.352-9.219 19.646-14.532 30.879-5.317 11.236-10.798 22.774-16.449 34.612-5.651 11.841-11.271 23.647-16.852 35.42-5.585 11.776-10.898 22.876-15.943 33.3-5.047 10.43-9.622 19.881-13.725 28.357-4.106 8.479-7.503 15.338-10.193 20.586-0.942 1.887-3.163 3.467-6.659 4.744-3.501 1.279-7.569 2.188-12.211 2.723-4.641 0.541-9.621 0.775-14.936 0.707-5.315-0.066-10.26-0.469-14.834-1.211-4.575-0.736-8.546-1.781-11.907-3.129-3.364-1.344-5.448-3.025-6.258-5.045-2.151-5.379-5.247-12.377-9.284-20.99-4.033-8.609-8.611-18.162-13.723-28.658-5.115-10.494-10.596-21.626-16.449-33.402-5.853-11.771-11.775-23.544-17.76-35.317-5.988-11.773-11.842-23.243-17.558-34.413-5.722-11.166-10.969-21.393-15.743-30.678-4.779-9.282-8.882-17.287-12.311-24.016-3.434-6.727-5.888-11.57-7.367-14.531-1.079-2.287-0.505-4.877 1.713-7.771 2.221-2.891 5.416-5.716 9.589-8.476 4.169-2.756 8.879-5.313 14.128-7.668 5.246-2.354 10.324-4.138 15.238-5.349 4.908-1.211 9.283-1.646 13.118-1.312 3.834 0.336 6.356 1.715 7.567 4.137z"/>
	<path d="m2410.2 911.06c0 2.826-1.75 5.449-5.248 7.871-3.5 2.422-7.94 4.371-13.32 5.854-5.383 1.479-11.169 2.451-17.357 2.926-6.189 0.469-11.941 0.166-17.255-0.91-5.316-1.076-9.758-2.959-13.321-5.648-3.566-2.689-5.281-6.389-5.146-11.102v-3.834c-16.685 11.035-34.783 16.682-54.29 16.953-13.86 0.133-26.509-1.549-37.943-5.047-11.438-3.496-21.729-8.375-30.879-14.631-9.152-6.258-17.124-13.654-23.918-22.201-6.794-8.543-12.479-17.793-17.053-27.752-4.576-9.954-8.107-20.383-10.596-31.281-2.492-10.898-3.936-21.862-4.339-32.897-0.404-11.706 0.436-23.412 2.522-35.118 2.084-11.706 5.38-22.872 9.889-33.502 4.506-10.629 10.292-20.518 17.356-29.668 7.063-9.149 15.371-17.086 24.927-23.815 9.551-6.728 20.313-11.974 32.291-15.744 11.975-3.764 25.159-5.649 39.557-5.649 10.497 0.135 20.251 1.312 29.266 3.532 9.014 2.219 17.424 5.417 25.229 9.586 0-1.076 0.031-2.152 0.102-3.229 0.066-1.076 0.101-1.949 0.101-2.624 0-2.555 1.715-4.708 5.146-6.459 3.432-1.748 7.671-3.059 12.716-3.935 5.045-0.875 10.495-1.312 16.348-1.312 5.854 0 11.304 0.438 16.349 1.312 5.045 0.876 9.248 2.22 12.612 4.036 3.363 1.817 5.047 4.072 5.047 6.762zm-131.99-196.78c-8.074 0.271-15.373 2.255-21.897 5.954-6.527 3.701-12.08 8.778-16.65 15.236-4.577 6.459-8.043 14.063-10.396 22.807-2.354 8.748-3.329 18.234-2.926 28.458 0.133 4.71 0.705 9.687 1.716 14.936 1.008 5.246 2.487 10.428 4.44 15.54 1.947 5.115 4.338 9.989 7.165 14.632 2.825 4.642 6.153 8.748 9.989 12.312 3.834 3.566 8.173 6.426 13.018 8.576 4.844 2.154 10.224 3.23 16.146 3.23 9.82 0 18.5-2.221 26.037-6.66 7.533-4.441 13.855-10.26 18.972-17.458 5.111-7.197 9.012-15.305 11.705-24.321 2.69-9.013 4.036-18.028 4.036-27.043 0-8.609-1.346-16.984-4.036-25.128-2.693-8.139-6.66-15.339-11.909-21.595-5.246-6.256-11.673-11.201-19.273-14.835-7.605-3.633-16.317-5.177-26.137-4.641z"/>
	<path d="m2687.3 844.05-119.88-0.806-28.054 76.086c-0.943 2.557-3.365 4.34-7.266 5.35-3.904 1.01-8.446 1.313-13.624 0.908-5.181-0.404-10.597-1.447-16.248-3.129-5.649-1.684-10.664-3.9-15.034-6.66-4.374-2.756-7.738-5.953-10.092-9.586-2.355-3.633-2.795-7.6-1.313-11.908 0.809-2.555 2.389-7.197 4.743-13.926 2.354-6.727 5.313-15 8.882-24.824 3.563-9.82 7.567-20.92 12.008-33.301 4.438-12.377 9.113-25.431 14.027-39.153 4.91-13.726 9.989-27.853 15.237-42.384 5.247-14.531 10.425-28.826 15.54-42.887 5.112-14.061 10.022-27.651 14.732-40.77 4.709-13.118 9.049-25.193 13.018-36.228 3.968-11.029 7.434-20.686 10.395-28.961 2.958-8.275 5.179-14.633 6.661-19.072 0.939-2.69 3.127-4.876 6.559-6.56 3.431-1.681 7.499-2.926 12.212-3.733 4.706-0.808 9.753-1.177 15.135-1.11 5.38 0.07 10.427 0.54 15.137 1.413 4.709 0.878 8.812 2.12 12.313 3.733 3.496 1.616 5.717 3.501 6.659 5.651 2.422 5.383 5.854 13.759 10.294 25.127 4.44 11.373 9.553 24.659 15.339 39.861 5.782 15.207 11.974 31.721 18.568 49.548 6.591 17.83 13.219 35.758 19.878 53.787 6.661 18.032 13.15 35.689 19.477 52.979 6.323 17.291 12.009 32.967 17.054 47.024 5.047 14.062 9.284 25.97 12.716 35.724 3.431 9.756 5.682 16.182 6.762 19.273 1.344 4.309 0.872 8.275-1.413 11.908-2.29 3.633-5.62 6.83-9.991 9.586-4.374 2.756-9.385 4.977-15.034 6.66-5.651 1.682-11.069 2.725-16.247 3.127-5.183 0.406-9.724 0.104-13.625-0.906-3.904-1.01-6.326-2.793-7.265-5.35zm-94.655-69.225 69.428 0.202-34.715-94.656z"/>
	<path d="m3094.9 738.1c0.405 16.416-1.077 32.426-4.438 48.033-3.364 15.61-8.613 30.309-15.743 44.1-7.133 13.793-16.08 26.438-26.842 37.941-10.767 11.506-23.346 21.395-37.741 29.668-14.399 8.275-30.546 14.633-48.438 19.072-17.896 4.441-37.473 6.525-58.731 6.258-9.016-0.137-17.189-0.74-24.521-1.816-7.336-1.08-13.623-2.928-18.871-5.551-5.247-2.623-9.284-6.188-12.109-10.697-2.824-4.504-4.238-10.256-4.238-17.254v-34.209c0-12.849 0.032-26.507 0.101-40.971 0.066-14.463 0.133-29.398 0.203-44.806 0.064-15.405 0.131-30.644 0.201-45.714 0.066-15.066 0.132-29.699 0.202-43.896 0.066-14.194 0.133-27.279 0.201-39.254 0.066-11.974 0.133-22.503 0.201-31.586 0.067-9.083 0.102-16.11 0.102-21.091 0-3.093 1.109-6.055 3.33-8.879 2.221-2.827 5.752-5.279 10.596-7.368 4.844-2.084 11.065-3.633 18.669-4.643 7.601-1.007 16.717-1.241 27.348-0.705 16.817 0.943 33.099 3.197 48.841 6.762 15.743 3.566 30.576 8.577 44.503 15.035 13.926 6.459 26.708 14.365 38.348 23.714 11.636 9.354 21.728 20.319 30.272 32.897 8.543 12.582 15.305 26.743 20.283 42.484 4.974 15.743 7.733 33.235 8.271 52.476zm-62.565 14.53c0.268-16.415-1.715-31.516-5.954-45.309-4.237-13.792-11.17-25.834-20.787-36.127-9.622-10.293-22.2-18.599-37.741-24.925-15.54-6.323-34.48-10.293-56.813-11.908l1.413 227.86c17.894-1.211 34.175-4.875 48.841-11 14.664-6.119 27.212-14.092 37.641-23.916 10.427-9.82 18.534-21.091 24.32-33.805 5.782-12.715 8.81-26.339 9.08-40.87z"/>
	<path d="m3371.4 832.75c0 15.878-2.559 29.702-7.671 41.474-5.115 11.775-11.941 21.564-20.484 29.367-8.546 7.805-18.401 13.658-29.567 17.559-11.17 3.9-22.74 5.854-34.715 5.854-11.301 0-22.739-1.617-34.31-4.844-11.573-3.23-22.705-7.805-33.402-13.725-10.696-5.92-20.722-13.119-30.07-21.596-9.354-8.479-17.528-17.963-24.522-28.457-1.886-2.826-2.355-6.156-1.412-9.992 0.938-3.833 2.754-7.733 5.448-11.705 2.689-3.967 5.953-7.7 9.787-11.2 3.837-3.497 7.671-6.358 11.505-8.579 3.834-2.218 7.433-3.495 10.798-3.834 3.362-0.334 5.919 0.707 7.67 3.129 4.572 6.458 9.72 12.381 15.439 17.761 5.718 5.384 11.672 10.09 17.861 14.128 6.188 4.035 12.514 7.232 18.972 9.586 6.459 2.355 12.715 3.734 18.77 4.137 5.38 0.404 9.955-0.166 13.725-1.715 3.765-1.545 6.726-3.699 8.88-6.457 2.149-2.758 3.665-5.957 4.541-9.589 0.873-3.632 1.243-7.396 1.11-11.301-0.135-3.9-0.808-7.771-2.019-11.605s-2.694-7.298-4.441-10.395c-3.902-6.59-9.282-13.185-16.145-19.779-6.862-6.59-14.43-13.219-22.705-19.878-8.274-6.661-16.888-13.387-25.833-20.183-8.95-6.794-17.493-13.757-25.633-20.89-8.142-7.13-15.54-14.395-22.201-21.797-6.659-7.397-11.807-15.067-15.439-23.008-6.055-13.32-8.748-26.809-8.073-40.465 0.673-13.655 4.239-26.404 10.696-38.247 4.978-9.416 11.065-17.458 18.267-24.117 7.195-6.661 15-11.974 23.412-15.945 8.406-3.968 17.321-6.659 26.74-8.073 9.418-1.413 18.938-1.614 28.558-0.605 9.619 1.01 19.14 3.198 28.561 6.56 9.415 3.365 18.364 7.804 26.841 13.32 3.766 2.422 8.105 5.619 13.018 9.586 4.91 3.971 9.82 8.208 14.734 12.715 4.91 4.509 9.451 8.95 13.622 13.32 4.169 4.374 7.332 8.174 9.486 11.404 2.421 3.768 3.061 7.638 1.918 11.604-1.145 3.971-3.365 7.805-6.661 11.504-3.298 3.703-7.334 7.064-12.109 10.092-4.776 3.026-9.52 5.383-14.229 7.063-4.71 1.685-9.05 2.624-13.018 2.825-3.971 0.201-6.762-0.772-8.376-2.926-8.345-10.225-17.256-18.468-26.742-24.724-9.485-6.258-18.536-10.562-27.146-12.917-8.611-2.354-16.215-2.69-22.806-1.009-6.594 1.684-11.17 5.348-13.725 10.999-2.153 4.712-2.355 9.723-0.604 15.036 1.747 5.317 4.876 10.868 9.385 16.65 4.506 5.787 10.091 11.776 16.751 17.962 6.661 6.19 13.856 12.481 21.595 18.87 7.737 6.393 15.674 12.887 23.817 19.478 8.138 6.595 15.909 13.152 23.31 19.677 7.398 6.527 14.128 13.054 20.182 19.577 6.055 6.528 10.9 12.885 14.533 19.072 4.304 7.671 7.735 15.541 10.292 23.614 2.553 8.075 3.834 16.621 3.834 25.634z"/>
</g></g>
</svg>
